PathFileType	4	(X/Y/Z)	Patient4_TMGait_0pt7_02_right_07.trc.trc
DataRate	CameraRate	NumFrames	NumMarkers	Units	OrigDataRate	OrigDataStartFrame	OrigNumFrames
86.956521739130	86.956521739130	5	33	mm	86.956521739130	106	       141
Frame#	Time	Sacral			L.Shoulder			Chest			R.Shoulder			Neck			R.ASIS			L.ASIS			R.Thigh.Superior			R.Thigh.Lateral			R.Thigh.Inferior			R.Patella			L.Thigh.Superior			L.Thigh.Lateral			L.Thigh.Inferior			L.Patella			L.Shank.Superior			L.Shank.Lateral			L.Shank.Inferior			R.Shank.Superior			R.Shank.Lateral			R.Shank.Inferior			R.Heel			R.Midfoot.Superior			R.Midfoot.Lateral			R.Toe			L.Heel			L.Midfoot.Lateral			L.Midfoot.Superior			L.Toe			L.Elbow			L.Wrist			R.Elbow			R.Wrist			
		X1	Y1	Z1	X2	Y2	Z2	X3	Y3	Z3	X4	Y4	Z4	X5	Y5	Z5	X6	Y6	Z6	X7	Y7	Z7	X8	Y8	Z8	X9	Y9	Z9	X10	Y10	Z10	X11	Y11	Z11	X12	Y12	Z12	X13	Y13	Z13	X14	Y14	Z14	X15	Y15	Z15	X16	Y16	Z16	X17	Y17	Z17	X18	Y18	Z18	X19	Y19	Z19	X20	Y20	Z20	X21	Y21	Z21	X22	Y22	Z22	X23	Y23	Z23	X24	Y24	Z24	X25	Y25	Z25	X26	Y26	Z26	X27	Y27	Z27	X28	Y28	Z28	X29	Y29	Z29	X30	Y30	Z30	X31	Y31	Z31	X32	Y32	Z32	X33	Y33	Z33	

106	8.247500000000	767.205706599900	1015.776309095127	439.990145264428	981.840055190369	1433.603680460181	258.005326890581	1072.978067716814	1359.066157362029	425.742405219601	985.014472726356	1445.852381268293	593.092137749550	980.046623976692	1496.202408403932	410.565896944775	986.817411225144	949.684500898040	567.615903868943	985.598065783914	962.206706596007	293.089825077732	1078.827180497776	794.277694769640	545.397725909281	1047.673540388456	673.576983610744	624.496814327613	1143.709429088612	639.571125482457	550.056931672885	1172.700551798927	528.855020365750	576.893371548127	1022.322071927453	749.068675605832	319.536245890246	926.999862483170	638.794631887984	261.338854776814	1006.988427554318	556.326848813012	323.967783752805	1003.182358382703	487.425369238764	334.708105095952	975.356437173370	417.296760797964	327.389195836498	883.411394236319	304.851967776811	276.299512230322	930.669334957105	193.185621336769	349.745346494225	1102.477738535721	448.127332507390	583.526292217336	983.486023834710	398.675726268660	641.098829318789	981.395797549744	287.434736775565	594.810330793207	789.428146888587	210.957196063056	562.287214707449	959.910774208150	161.413511399165	610.181499684341	848.703118839584	153.902264726616	637.497212155412	1027.878155773517	50.588966988303	636.315289239108	798.895771061826	38.905502557562	392.068594526658	874.672465382534	35.521727906217	312.587408898370	957.146376352063	95.779442696865	340.766684758541	1086.664526169021	42.442126535351	315.640720243953	983.314378411104	1089.537094372299	125.115136793767	1186.637662668829	926.504580901786	136.861266172798	913.686945964961	1106.060653340160	712.551889533346	1070.497146428698	899.125789658136	695.842111153274	
107	8.259000000000	766.379658513364	1015.655576394768	439.467601503016	982.684975066849	1433.637070597760	258.439922539152	1072.615876214654	1358.776822432546	426.670069839055	983.941181052871	1445.439913829122	593.766851439889	979.761833829812	1496.062779820554	410.982576285408	985.659889666743	949.679224263233	567.940636011541	985.141423877117	962.079471925556	293.318276447575	1078.877148449701	796.341521340040	545.533405380798	1049.312668371742	675.274630901728	624.725588137134	1145.527644871268	642.398167500764	550.145550149599	1176.612805949876	533.178933540828	577.049380389815	1019.598697947906	748.069725833424	320.068974506388	923.083360216145	638.766362893922	261.250694140038	1001.615559496127	555.373642371554	324.044833166992	996.799264093378	486.687412256546	334.884658255453	968.933547925883	416.842601269015	327.410157772158	876.557835088206	304.806651425801	276.230571161451	923.095440609465	192.962057231605	349.792690514644	1109.790624775849	450.440444947506	584.027248726773	993.807767968315	395.442587280326	642.514182803388	996.751930462051	284.128635749085	596.302829369786	808.498532925557	198.466690080707	565.241637724870	981.550410732397	157.066024667583	611.899881160922	870.954206602430	144.241286964593	639.929172691055	1054.879069529644	49.592465251189	637.538295581057	790.798857512661	38.928203835187	392.059288932136	866.581067984611	35.509304582483	312.602127757825	949.079113930609	95.721272073083	340.794152597788	1078.591350862220	42.328605465751	315.644691297677	989.714710913466	1090.999976388016	123.533599213640	1201.059006987429	939.193030346246	137.255448292174	908.586415982492	1105.953989046377	712.836597206648	1046.815837003281	885.168555183571	702.229455962752	
108	8.270500000000	765.679591974106	1015.515332358280	439.052330787011	983.510636565679	1433.643707769701	259.066143813842	1072.341660259810	1358.425373881968	427.692334375461	982.987257613250	1444.873667967700	594.544281029849	979.555703071497	1495.850811900681	411.615347813778	984.587969583434	949.500613638775	568.301006779536	984.866326717412	961.879222578418	293.612928278478	1078.641357512533	797.838028543320	545.749722062782	1050.326779288979	676.474560300520	625.061607109322	1146.602695341689	644.504496548693	550.327428519261	1179.564708833362	536.954608079160	577.311451793811	1016.996105325594	747.030206554014	320.688830744946	919.204182714373	638.731808933984	261.243100415503	996.195359202852	554.407069691850	324.202698406495	990.360729312082	485.973817666540	335.131047535680	962.464389949552	416.400994120964	327.486636758515	869.692573762551	304.765673644748	276.185142769945	915.498396628713	192.747244682226	349.875950817531	1116.395409561912	452.379571361171	584.647917988898	1003.889905260936	391.696877576267	644.037840316011	1012.227552918099	280.573420905442	597.924305799161	828.526297039126	185.334542909453	568.205516678299	1003.722171072613	152.730500185514	613.777038130401	894.082802412961	134.368185305677	642.447386168088	1082.498373928149	49.196687081563	639.123631131043	782.708560929562	38.957643155597	392.039804178561	858.485081552792	35.497288473813	312.618143121757	941.008750041793	95.668093959037	340.827692438864	1070.512553659990	42.219891940238	315.653437066998	995.774129122375	1092.585784793367	122.119691616853	1214.371171034358	952.292212461039	138.031182496515	903.453339828539	1105.885432618871	713.387351390077	1022.260502428451	873.358389644765	708.629961549107	
109	8.282000000000	765.119190989711	1015.360618394351	438.741805324811	984.304668666249	1433.623339225730	259.888034004139	1072.159136581630	1358.014876792313	428.803358195018	982.155582911911	1444.159280160468	595.415560937659	979.444074462323	1495.564851446090	412.467557390674	983.628603950689	949.146797486102	568.703305016443	984.786075919213	961.637030607611	293.966818913072	1078.115124768251	798.723148534996	546.040924601520	1050.700593029492	677.129501606471	625.509837303665	1146.928847877030	645.834308994941	550.608758984686	1181.554079642971	540.114078491146	577.675158434662	1014.498918369959	745.939855668623	321.362051472118	915.314614745865	638.705550730192	261.303790820085	990.680236271067	553.431371634371	324.421788284531	983.831707524161	485.293764810503	335.416057339155	955.902112425159	415.988689319272	327.597784100231	862.768490797967	304.737771242168	276.154225027940	907.865444703858	192.552549534832	349.981815239990	1122.255310022306	453.922575052982	585.378697056062	1013.700076352602	387.498939083510	645.648457791103	1027.737293838019	276.878849572822	599.640906426176	849.479653264559	171.779986635405	571.114025874732	1026.302917403147	148.589600473338	615.779175408865	917.997352224377	124.489282678880	644.995459796015	1110.534150889645	49.601276380889	641.005182207281	774.622613475769	38.995483261491	392.008880966633	850.382767334059	35.486533491839	312.634261337104	932.933972146023	95.621647720337	340.861997424477	1062.425159790227	42.118235770886	315.665838454567	1001.476537464261	1094.275470059450	120.869517814954	1226.538692936530	965.711246391853	139.166560365554	898.119506378173	1105.942000301744	714.154162470435	997.172333460615	863.814608542372	714.957743304031	
110	8.293500000000	764.715361422790	1015.180993323487	438.537911360566	985.061178043727	1433.567219216820	260.904944245782	1072.069916616250	1357.542875025045	430.000805553407	981.450658409685	1443.306400059221	596.377699663548	979.436365288201	1495.197950820912	413.534264038866	982.817774244098	948.616622403002	569.162713905276	984.900154111919	961.373474482647	294.378631233196	1077.305752096262	798.956661351272	546.412268468029	1050.433502903133	677.196938161937	626.078058191274	1146.518778329114	646.342355135670	550.999816322687	1182.597338245912	542.596959462742	578.134364865966	1012.080820285109	744.786707717564	322.060503687942	911.364357788762	638.701386769959	261.416211728851	985.022843213047	552.451336426036	324.678595346526	977.179208265169	484.652615147874	335.702795910799	949.198624840274	415.623521180213	327.718269734072	855.735285906601	304.732181182383	276.127720290432	900.184518630816	192.390139597801	350.093336200521	1127.344573763590	455.044807077668	586.206058420010	1023.194598749720	382.906893473386	647.319769036345	1043.168973161546	273.142718910400	601.411310860804	871.263134220432	158.029145972631	573.900727004989	1049.123312998356	144.797647285857	617.858354706595	942.547388669137	114.796741366813	647.512365336308	1138.734404734320	50.947551926835	643.098675953163	766.537774465337	39.042887008675	391.967385027598	842.272806703446	35.478047021868	312.649615394951	924.853913363396	95.583289298596	340.891500236174	1054.326875912614	42.026023348286	315.680734441728	1006.806047345424	1096.041050273723	119.778045065902	1237.535542807795	979.349328835265	140.638022139377	892.450077167177	1106.210999966555	715.094700971539	971.936220892575	856.578900664280	721.111034942301	
